<?xml version="1.0" encoding="utf-8"?>
<!-- Generator: Adobe Illustrator 23.0.3, SVG Export Plug-In . SVG Version: 6.00 Build 0)  -->
<svg version="1.1" id="Layer_1" xmlns="http://www.w3.org/2000/svg" xmlns:xlink="http://www.w3.org/1999/xlink" x="0px" y="0px"
	 viewBox="0 0 830 990" style="enable-background:new 0 0 830 990;" xml:space="preserve">
<style type="text/css">
	.st0{fill:#F6F6F6;}
	.st1{fill:#757575;stroke:#757575;stroke-width:0.5;stroke-miterlimit:10;}
	.st2{fill:#757575;}
</style>
<rect class="st0" width="830" height="990"/>
<g>
	<path class="st1" d="M573.8,312.5H278.7c-3.4,0-6.1,2.6-6.1,5.8v221.6c0,3.6,3.1,5.8,6.1,5.8h295.4c3.4,0,6.1-2.6,6.1-5.8V318.3
		C580.3,315.2,577.3,312.5,573.8,312.5z M577.3,539.9c0,1.9-1.5,3.4-3.4,3.4H278.7c-1.9,0-3.4-1.5-3.4-3.4V318.3
		c0-1.9,1.5-3.4,3.4-3.4h295.4c1.9,0,3.4,1.5,3.4,3.4L577.3,539.9z"/>
	<path class="st1" d="M551.2,518.8V337.9H297.7v180.9h71.8H551.2z M548.6,516.2H376l4.1-1.5c21.3-7.5,80.2-25.9,167.6-33.2l0.8-0.1
		V516.2z M548.5,479l-0.7,0.1c-54.6,4.7-95,12.8-119.2,18.8l-0.4,0.1l-41.8-41.2l64.5-63.6c4-4,9.5-6.2,15.5-6.2s11.5,2.2,15.5,6.2
		l66.9,66L548.5,479z M301,340.3h247.6V455l-65-64.1c-4.4-4.4-10.8-7-17.1-7c-6.4,0-12.8,2.6-17.1,7l-64.5,63.6l-2.6-2.6
		c-4.4-4.4-10.8-7-17.1-7c-6.5,0-12.6,2.5-17.1,7l-47,46.4V340.3z M368.6,516.8h-68.2v-14.5l48.7-48.1c4-4,9.5-6.2,15.5-6.2
		c6,0,11.5,2.2,15.5,6.2l3.6,3.6l41.6,41.3l-1.3,0.3c-31.9,7.9-50.7,15.2-55.2,17.3L368.6,516.8z"/>
	<path class="st1" d="M351.3,372c-10.6,0-19.3,8.5-19.3,19c0,10.6,8.5,19,19.3,19c10.6,0,19.3-8.5,19.3-19S362,372,351.3,372z
		 M351.3,407.3c-9.5,0-16.9-7.3-16.9-16.6c0-9.2,7.6-16.6,16.9-16.6s16.9,7.4,16.9,16.6C368.2,400,360.8,407.3,351.3,407.3z"/>
</g>
<g>
	<path class="st2" d="M290.9,602c0-3.6,1.4-6.7,4.2-9.2c2.8-2.5,6.8-3.8,11.9-3.8c5.2,0,9.1,1.3,11.9,3.8c2.8,2.5,4.1,5.6,4.1,9.2
		c0,4.7-2.2,8.2-6.5,10.4c5.1,2.2,7.6,6.2,7.6,11.9c0,4.5-1.6,8.1-4.8,10.8c-3.2,2.7-7.3,4-12.3,4c-5,0-9.1-1.3-12.4-4
		c-3.2-2.7-4.9-6.3-4.9-10.8c0-2.8,0.7-5.3,2-7.3c1.3-2,3.2-3.6,5.6-4.6C293,610.2,290.9,606.7,290.9,602z M312.9,618.5
		c-1.4-1.3-3.4-2-5.9-2c-2.5,0-4.5,0.7-6.1,2c-1.5,1.3-2.3,3.1-2.3,5.5c0,2.3,0.7,4.2,2.2,5.6c1.5,1.4,3.5,2.1,6.1,2.1
		c2.6,0,4.6-0.7,6-2.2c1.4-1.4,2.1-3.3,2.1-5.6C315,621.7,314.3,619.8,312.9,618.5z M314.1,603.2c0-2-0.6-3.6-1.9-4.8
		c-1.3-1.2-3-1.8-5.2-1.8c-2.2,0-3.9,0.6-5.2,1.8c-1.3,1.2-2,2.8-2,4.8c0,2,0.7,3.6,2,4.9c1.3,1.2,3.1,1.8,5.1,1.8
		c2.1,0,3.8-0.6,5.1-1.8C313.4,606.8,314.1,605.2,314.1,603.2z"/>
	<path class="st2" d="M336.1,593.1c2.9-2.4,6.7-3.6,11.4-3.6c4.7,0,8.3,1.2,11,3.6c2.7,2.4,4,5.4,4,9c0,2.8-0.7,5.1-2.2,7
		c-1.4,1.9-3,3.1-4.8,3.8v0.3c5.2,1.8,7.8,5.7,7.8,11.8c0,4-1.4,7.3-4.2,9.8c-2.8,2.5-6.6,3.7-11.5,3.7c-4.9,0-8.9-1.2-11.9-3.7
		c-3.1-2.5-4.7-6.1-4.8-10.9h8.9c0.1,2.1,0.8,3.8,2.2,5.1c1.4,1.3,3.2,1.9,5.5,1.9c2.3,0,4.1-0.6,5.3-1.9c1.2-1.2,1.8-3,1.8-5.3
		c0-2.3-0.8-4-2.4-5.1c-1.6-1.1-4.2-1.7-7.7-1.7h-1.9v-7.5h1.9c6.2,0,9.3-2.1,9.3-6.2c0-1.8-0.6-3.2-1.7-4.2c-1.1-1-2.7-1.6-4.8-1.6
		s-3.7,0.6-4.7,1.8c-1,1.2-1.7,2.5-1.8,3.9h-8.9C331.7,598.8,333.2,595.5,336.1,593.1z"/>
	<path class="st2" d="M370.5,614.4c0-15.8,5.9-23.7,17.6-23.7c11.7,0,17.6,7.9,17.6,23.7s-5.9,23.7-17.6,23.7
		C376.4,638.1,370.5,630.2,370.5,614.4z M392,600.1c-1.1-0.6-2.4-0.8-3.9-0.8c-1.5,0-2.8,0.3-3.9,0.8c-1.1,0.6-1.9,1.3-2.5,2.2
		c-0.6,0.9-1.1,2-1.4,3.4c-0.3,1.4-0.6,2.8-0.7,4.1c-0.1,1.3-0.2,2.9-0.2,4.6c0,1.8,0.1,3.3,0.2,4.6c0.1,1.3,0.3,2.7,0.7,4.1
		c0.3,1.4,0.8,2.6,1.4,3.5c0.6,0.9,1.4,1.6,2.5,2.2c1.1,0.6,2.4,0.8,3.9,0.8c1.5,0,2.8-0.3,3.9-0.8c1.1-0.6,1.9-1.3,2.5-2.2
		c0.6-0.9,1.1-2,1.4-3.5c0.3-1.4,0.6-2.8,0.7-4.1c0.1-1.3,0.2-2.8,0.2-4.6c0-1.8-0.1-3.3-0.2-4.6c-0.1-1.3-0.3-2.7-0.7-4.1
		c-0.3-1.4-0.8-2.6-1.4-3.4C393.9,601.4,393.1,600.6,392,600.1z"/>
	<path class="st2" d="M442.9,602l-11.8,17.7l11.7,18.5h-10.3l-6.9-10.9l-6.7,10.9h-9.3l11.7-17.6L409.7,602H420l6.9,11l6.7-11H442.9
		z"/>
	<path class="st2" d="M465,630.6c2.7,0,4.7-1.1,5.9-3.2c1.2-2.1,1.9-5.7,1.9-10.8c-1,1.2-2.3,2.1-4.1,2.8c-1.8,0.7-3.6,1-5.6,1
		c-4.5,0-8.1-1.3-10.9-3.9c-2.8-2.6-4.2-6.3-4.2-11.2c0-4.9,1.4-8.8,4.3-11.7c2.9-2.9,6.8-4.3,11.8-4.3c6.2,0,10.6,2,13.1,6
		c2.5,4,3.8,10.2,3.8,18.4c0,8.3-1.2,14.4-3.5,18.3c-2.3,3.9-6.6,5.9-12.9,5.9c-4.9,0-8.6-1.3-11.2-3.9c-2.5-2.6-3.9-5.9-4.1-9.8
		h8.5C458.4,628.6,460.8,630.6,465,630.6z M456.8,605c0,2.3,0.7,4.1,2,5.6c1.3,1.5,3.2,2.3,5.6,2.3s4.3-0.7,5.6-2.1
		c1.3-1.4,2-3.3,2-5.8s-0.7-4.4-2-5.8c-1.3-1.4-3.2-2.1-5.5-2.1c-2.3,0-4.2,0.8-5.5,2.3C457.4,600.8,456.8,602.7,456.8,605z"/>
	<path class="st2" d="M506.6,630.6c2.7,0,4.7-1.1,5.9-3.2c1.2-2.1,1.9-5.7,1.9-10.8c-1,1.2-2.3,2.1-4.1,2.8c-1.8,0.7-3.6,1-5.6,1
		c-4.5,0-8.1-1.3-10.9-3.9c-2.8-2.6-4.2-6.3-4.2-11.2c0-4.9,1.4-8.8,4.3-11.7c2.9-2.9,6.8-4.3,11.8-4.3c6.2,0,10.6,2,13.1,6
		c2.5,4,3.8,10.2,3.8,18.4c0,8.3-1.2,14.4-3.5,18.3c-2.3,3.9-6.6,5.9-12.9,5.9c-4.9,0-8.6-1.3-11.2-3.9c-2.5-2.6-3.9-5.9-4.1-9.8
		h8.5C499.9,628.6,502.3,630.6,506.6,630.6z M498.3,605c0,2.3,0.7,4.1,2,5.6c1.3,1.5,3.2,2.3,5.6,2.3s4.3-0.7,5.6-2.1
		c1.3-1.4,2-3.3,2-5.8s-0.7-4.4-2-5.8c-1.3-1.4-3.2-2.1-5.5-2.1c-2.3,0-4.2,0.8-5.5,2.3C498.9,600.8,498.3,602.7,498.3,605z"/>
	<path class="st2" d="M529.8,614.4c0-15.8,5.9-23.7,17.6-23.7c11.7,0,17.6,7.9,17.6,23.7s-5.9,23.7-17.6,23.7
		C535.7,638.1,529.8,630.2,529.8,614.4z M551.3,600.1c-1.1-0.6-2.4-0.8-3.9-0.8c-1.5,0-2.8,0.3-3.9,0.8c-1.1,0.6-1.9,1.3-2.5,2.2
		c-0.6,0.9-1.1,2-1.4,3.4c-0.3,1.4-0.6,2.8-0.7,4.1c-0.1,1.3-0.2,2.9-0.2,4.6c0,1.8,0.1,3.3,0.2,4.6c0.1,1.3,0.3,2.7,0.7,4.1
		c0.3,1.4,0.8,2.6,1.4,3.5c0.6,0.9,1.4,1.6,2.5,2.2c1.1,0.6,2.4,0.8,3.9,0.8c1.5,0,2.8-0.3,3.9-0.8c1.1-0.6,1.9-1.3,2.5-2.2
		c0.6-0.9,1.1-2,1.4-3.5c0.3-1.4,0.6-2.8,0.7-4.1c0.1-1.3,0.2-2.8,0.2-4.6c0-1.8-0.1-3.3-0.2-4.6c-0.1-1.3-0.3-2.7-0.7-4.1
		c-0.3-1.4-0.8-2.6-1.4-3.4C553.2,601.4,552.4,600.6,551.3,600.1z"/>
</g>
</svg>
