<svg xmlns="http://www.w3.org/2000/svg" width="35" height="67" viewBox="0 0 35 67">
  <defs>
    <style>
      .cls-1 {
        fill: #e4e4e4;
        fill-rule: evenodd;
      }
    </style>
  </defs>
  <path id="Shape_11_copy" data-name="Shape 11 copy" class="cls-1" d="M193.4,5166.44a1.842,1.842,0,0,1-1.323.56,1.791,1.791,0,0,1-1.322-.56l-31.185-31.58a1.9,1.9,0,0,1-.017-2.66,0.039,0.039,0,0,0,.017-0.02l31.185-31.58a1.863,1.863,0,0,1,2.645-.09,1.915,1.915,0,0,1,.088,2.68l-0.088.09-29.862,30.24,29.862,30.24a1.905,1.905,0,0,1,.008,2.67A0.07,0.07,0,0,0,193.4,5166.44Z" transform="translate(-159 -5100)"/>
</svg>
