<svg height='300px' width='300px'  fill="#000000" xmlns="http://www.w3.org/2000/svg" xmlns:xlink="http://www.w3.org/1999/xlink" version="1.1" x="0px" y="0px" viewBox="0 0 128 128" style="enable-background:new 0 0 128 128;" xml:space="preserve"><g><g><g><path d="M44.812,105.331h-3.955c-5.861,0-10.63-4.785-10.63-10.667c-0.052-2.917,1.049-5.661,3.098-7.692     c1.421-1.408,3.182-2.349,5.109-2.753L24.573,19H4c-1.104,0-2-0.896-2-2s0.896-2,2-2h22.192c0.004,0,0.011,0,0.017,0     c0.008,0,0.015-0.002,0.022,0c0.001,0,0.002,0,0.003,0c0,0,0.015,0,0.022,0c0.002,0,0.004,0,0.006,0c0.001,0,0.001,0,0.001,0     c0.004,0,0.004,0,0.006,0s0.004,0,0.006,0c0,0.001,0.003,0,0.005,0c0.006,0,0.011-0.003,0.017,0.001c0.002,0,0.004,0,0.006,0     c0.001,0,0.002,0,0.004,0h0.001c0.002,0,0.003,0,0.005,0c0,0,0.003,0.001,0.006,0l0,0c0.004,0,0.008,0,0.012,0.001l0,0     c0.009,0,0.018,0.001,0.026,0.002l0,0c0.013,0.001,0.025,0.002,0.038,0.003l0,0c0.002,0,0.004,0,0.005,0H26.4     c0.002,0,0.003,0,0.005,0l0,0c0.004,0,0.007,0.001,0.011,0.001c0,0,0,0,0,0c0.004,0,0.007,0,0.011,0.001l0,0     c0.023,0.003,0.047,0.006,0.069,0.009h0.001c0.002,0,0.003,0,0.005,0.001l0,0c0.002,0,0.004,0,0.006,0.001l0,0     c0.001,0,0.003,0,0.005,0.001l0,0c0.002,0,0.003,0,0.005,0c0,0,0.002,0,0.005,0.001h0.001c0.002,0,0.003,0,0.005,0.001l0,0     c0.002,0,0.004,0,0.006,0.001l0,0c0.009,0.001,0.018,0.003,0.026,0.005l0,0c0.002,0,0.004,0,0.005,0.001l0,0     c0.041,0.007,0.081,0.017,0.12,0.026l0,0c0.002,0,0.004,0.001,0.005,0.001h0.001c0.002,0.001,0.005,0.001,0.005,0.001     c0.002,0,0.003,0,0.005,0.001l0,0c0.002,0,0.004,0.001,0.006,0.001l0,0c0.001,0,0.003,0.001,0.005,0.001l0,0     c0.003,0.001,0.007,0.002,0.01,0.003l0,0c0.007,0.002,0.014,0.004,0.021,0.005v0c0.002,0,0.004,0,0.005,0.001     c0,0,0.003,0,0.005,0.001c0.003,0,0.003,0.001,0.006,0.001c0,0,0,0,0,0c0.002,0,0.003,0,0.005,0.001v0     c0.002,0,0.01,0.005,0.005,0.001c0.002,0,0.004,0.001,0.005,0.001h0.001c0.001,0,0.003,0.001,0.004,0.001h0.001     c0.002,0.001,0.005,0.001,0.005,0.001c0.002,0,0.003,0.001,0.005,0.001c0.001,0,0.003,0.001,0.005,0.002l0,0     c0.002,0,0.004,0.001,0.005,0.001c0,0,0.002,0,0.006,0.001l0,0c0.002,0.001,0.005,0.002,0.005,0.002     c0.001,0.001,0.008,0.004,0.005,0.001c0.003,0.001,0.005,0.001,0.005,0.001c0.004,0.001,0.005,0.002,0.005,0.002     c0.004,0.001,0.004,0.001,0.006,0.001c0.001,0,0.002,0.001,0.004,0.001c0,0,0.002,0.001,0.004,0.001     c0.002,0.001,0.003,0.001,0.005,0.002c0.002,0,0.003,0,0.005,0.001c0.001,0,0.002,0,0.002,0c0.002,0.001,0.005,0.001,0.005,0.002     c0.002,0.001,0.005,0.001,0.005,0.002c0.002,0,0.003,0,0.004,0.001l0.001,0c0.004,0.001,0.004,0.001,0.006,0.002     s0.003,0.001,0.005,0.001c0.002,0.001,0.003,0.002,0.005,0.002c0.002,0.001,0.003,0.002,0.005,0.002     c0.001,0.001,0.003,0.001,0.005,0.002c0.002,0,0.003,0.001,0.005,0.001c0.002,0,0.002,0.002,0.005,0.002     c0.002,0.001,0.003,0.002,0.005,0.002c0.002,0.001,0.003,0.001,0.005,0.002s0.003,0.001,0.005,0.002s0.003,0.001,0.005,0.002     s0.005,0.001,0.005,0.002c0.002,0.001,0.005,0.001,0.005,0.002c0.001,0,0.004-0.002,0.005,0.002c0.001,0,0.004-0.002,0.005,0.002     c0.002,0,0.005,0.001,0.005,0.002c0.002,0,0.005,0.001,0.005,0.002c0.002,0.001,0.005,0.001,0.005,0.002     c0.002,0.001,0.005,0.001,0.005,0.002c0.002,0.001,0.005,0.002,0.005,0.002c0.002,0.001,0.003,0.002,0.005,0.002     c0.001,0-0.003,0,0.005,0.002c0.001,0-0.003-0.002,0.005,0.002c0.001,0,0-0.001,0.005,0.002c0.001,0.001,0,0.001,0.005,0.002     c0.001,0-0.004-0.003,0.005,0.002c0.002,0,0.003,0,0.005,0.002c0.002,0.001,0.003,0.001,0.005,0.002s0.003,0.001,0.005,0.002     c0.002,0,0.003,0.001,0.005,0.002s0.003,0.002,0.005,0.002c0,0.001,0.003,0.001,0.005,0.002c0,0,0.003,0.001,0.005,0.002     c0,0.002,0.003,0.002,0.004,0.002c0.002,0,0.003,0.001,0.005,0.002s0.003,0.001,0.005,0.002c0.001,0,0.001,0,0.001,0     c0.003,0.001,0.004,0.001,0.005,0.002c0.003,0,0.004,0,0.005,0.002c0.001,0.001,0.003,0.001,0.004,0.002l0.001,0     c0.001,0-0.004-0.004,0.005,0.002c0.002,0.001,0.003,0.001,0.005,0.002c0.002,0.001,0.003,0.002,0.005,0.002     c0.001,0.001,0.004,0.002,0.004,0.002c0.002,0,0.004,0.001,0.005,0.002s0.003,0.001,0.004,0.002l0.001,0     c0.001,0,0.002,0.001,0.004,0.002c0,0,0.002,0,0.004,0.002c0.001,0,0.001,0,0.001,0c0.002,0.001,0.003,0.001,0.004,0.002h0.001     c0.001,0.001,0.004,0.001,0.005,0.002s-0.001,0.001,0.005,0.002c0.001,0.001,0.002,0.001,0.004,0.002v0     c0.003,0.001,0.006,0.003,0.009,0.004c0,0,0.001,0.001,0.005,0.002c0.001,0,0.003,0.002,0.005,0.002l0,0     c0.003,0.002,0.006,0.003,0.009,0.005l0,0c0.002,0.001,0.003,0.002,0.005,0.002l0,0c0.001,0.001,0.003,0.002,0.005,0.003l0,0     c0.001,0,0.003,0.001,0.004,0.002c0,0,0,0,0.001,0c0.003,0.001,0.006,0.003,0.009,0.005l0,0c0.004,0.002,0.009,0.005,0.014,0.008     l0,0c0.001,0.001,0.003,0.001,0.004,0.002h0.001c0.001,0.001,0.003,0.002,0.004,0.002l0,0c0.482,0.275,0.843,0.747,0.965,1.32     l14.7,68.995c0.23,1.081-0.459,2.143-1.539,2.373c-0.085,0.018-0.169,0.03-0.253,0.038c-0.083,0.008-0.168,0.01-0.252,0.009     c-1.778-0.06-3.436,0.598-4.663,1.816c-1.267,1.256-1.946,2.966-1.914,4.816c0,3.711,2.975,6.702,6.63,6.702h3.955     c1.105,0,2,0.896,2,2S45.917,105.331,44.812,105.331z"></path><path d="M94.242,105.331H60.084c-1.104,0-2-0.896-2-2s0.896-2,2-2h34.158c1.104,0,2,0.896,2,2     S95.347,105.331,94.242,105.331z"></path><path d="M52.448,113c-5.313,0-9.637-4.337-9.637-9.669s4.323-9.669,9.637-9.669s9.636,4.337,9.636,9.669     S57.762,113,52.448,113z M52.448,97.662c-3.108,0-5.637,2.543-5.637,5.669S49.34,109,52.448,109c3.107,0,5.636-2.543,5.636-5.669     S55.556,97.662,52.448,97.662z"></path><path d="M101.879,113c-5.313,0-9.637-4.337-9.637-9.669s4.323-9.669,9.637-9.669s9.636,4.337,9.636,9.669     S107.192,113,101.879,113z M101.879,97.662c-3.108,0-5.637,2.543-5.637,5.669S98.771,109,101.879,109     c3.107,0,5.636-2.543,5.636-5.669S104.986,97.662,101.879,97.662z"></path></g><path d="M108.673,87.948h-67.78c-0.944,0-1.76-0.66-1.956-1.583l-10.219-47.96    c-0.126-0.59,0.021-1.206,0.401-1.675s0.951-0.742,1.555-0.742H124c0.639,0,1.238,0.305,1.615,0.82s0.484,1.18,0.29,1.789    l-15.327,47.96C110.313,87.385,109.543,87.948,108.673,87.948z M42.512,83.948h64.7l14.049-43.96H33.145L42.512,83.948z"></path><g><path d="M77.337,77.878c-1.104,0-2-0.896-2-2V48.057c0-1.104,0.896-2,2-2s2,0.896,2,2v27.821     C79.337,76.982,78.441,77.878,77.337,77.878z"></path><path d="M99.155,77.878c-1.104,0-2-0.896-2-2V48.057c0-1.104,0.896-2,2-2s2,0.896,2,2v27.821     C101.155,76.982,100.26,77.878,99.155,77.878z"></path><path d="M55.519,77.878c-1.104,0-2-0.896-2-2V48.057c0-1.104,0.896-2,2-2s2,0.896,2,2v27.821     C57.519,76.982,56.623,77.878,55.519,77.878z"></path></g></g></g></svg>