<?xml version="1.0" encoding="utf-8"?>
<!-- Generator: Adobe Illustrator 23.0.3, SVG Export Plug-In . SVG Version: 6.00 Build 0)  -->
<svg version="1.1" id="Layer_1" xmlns="http://www.w3.org/2000/svg" xmlns:xlink="http://www.w3.org/1999/xlink" x="0px" y="0px"
	 viewBox="0 0 400 230" style="enable-background:new 0 0 400 230;" xml:space="preserve">
<style type="text/css">
	.st0{fill:#F6F6F6;}
	.st1{fill:#757575;}
</style>
<rect class="st0" width="400" height="230"/>
<g>
	<g>
		<g>
			<path class="st1" d="M252.7,53.5H154c-1.3,0-2.3,1-2.3,2.2v74.1c0,1.3,1.1,2.2,2.3,2.2h98.8c1.3,0,2.3-1,2.3-2.2V55.7
				C255.1,54.5,254,53.5,252.7,53.5z M253.6,129.8c0,0.5-0.4,0.9-0.9,0.9H154c-0.5,0-0.9-0.4-0.9-0.9V55.7c0-0.5,0.4-0.9,0.9-0.9
				h98.8c0.5,0,0.9,0.4,0.9,0.9L253.6,129.8L253.6,129.8z"/>
		</g>
	</g>
	<g>
		<g>
			<path class="st1" d="M160.1,123h24v0.1c0,0,0.1,0,0.2-0.1h61.1V62h-85.3L160.1,123L160.1,123z M161.5,117.3l16.2-16
				c1.3-1.3,3.1-2,5-2s3.7,0.7,5,2l1.2,1.2l13.6,13.5c-10.5,2.6-16.8,5-18.5,5.8h-22.5V117.3L161.5,117.3z M244,109.2
				c-16.3,1.4-29.8,3.8-39.9,6.3L190.4,102l21.4-21.1c1.3-1.3,3.1-2,5-2s3.7,0.7,5,2l22.3,22L244,109.2L244,109.2z M188,121.6
				c7.9-2.8,27.5-8.7,56-11.1v11.1H188z M244,63.3v37.5l-21.3-21c-1.5-1.5-3.7-2.4-5.9-2.4s-4.4,0.9-5.9,2.4l-21.4,21.1l-0.7-0.7
				c-1.5-1.5-3.7-2.4-5.9-2.4c-2.3,0-4.4,0.9-5.9,2.4l-15.3,15.1v-52H244L244,63.3z"/>
		</g>
	</g>
	<g>
		<g>
			<path class="st1" d="M178.3,86.6c3.7,0,6.7-3,6.7-6.6s-3-6.6-6.7-6.6s-6.7,3-6.7,6.6S174.5,86.6,178.3,86.6z M178.3,74.6
				c2.9,0,5.4,2.3,5.4,5.3s-2.4,5.3-5.4,5.3s-5.4-2.3-5.4-5.3C172.9,77,175.3,74.6,178.3,74.6z"/>
		</g>
	</g>
</g>
<g>
	<path class="st1" d="M154.3,174.4v-4.7h-8.8v-3l7.5-12h5.7v11.6h2.4v3.5h-2.4v4.7H154.3z M154.3,166.2v-4.4c0-1.2,0.1-2.4,0.2-3.7
		h-0.1c-0.6,1.3-1.2,2.4-1.8,3.7l-2.6,4.3v0.1H154.3z"/>
	<path class="st1" d="M177.6,164.4c0,6.1-2.5,10.3-7.5,10.3c-5.1,0-7.4-4.6-7.4-10.2c0-5.7,2.4-10.3,7.5-10.3
		C175.6,154.2,177.6,159,177.6,164.4z M167.4,164.5c0,4.5,1.1,6.7,2.9,6.7c1.8,0,2.8-2.3,2.8-6.8c0-4.4-0.9-6.7-2.8-6.7
		C168.5,157.7,167.4,159.9,167.4,164.5z"/>
	<path class="st1" d="M194.5,164.4c0,6.1-2.5,10.3-7.5,10.3c-5.1,0-7.4-4.6-7.4-10.2c0-5.7,2.4-10.3,7.5-10.3
		C192.5,154.2,194.5,159,194.5,164.4z M184.3,164.5c0,4.5,1.1,6.7,2.9,6.7c1.8,0,2.8-2.3,2.8-6.8c0-4.4-0.9-6.7-2.8-6.7
		C185.4,157.7,184.2,159.9,184.3,164.5z"/>
	<path class="st1" d="M200.9,159.5l1.5,2.5c0.4,0.8,0.8,1.5,1.2,2.2h0.1c0.4-0.8,0.8-1.6,1.2-2.3l1.3-2.4h5l-4.9,7.1l5,7.8H206
		l-1.5-2.7c-0.4-0.7-0.8-1.5-1.2-2.3h-0.1c-0.4,0.8-0.8,1.5-1.1,2.3l-1.4,2.7h-5.1l5.1-7.6l-4.9-7.3H200.9z"/>
	<path class="st1" d="M212.6,174.4v-2.8l2.6-2.3c4.3-3.9,6.4-6.1,6.5-8.4c0-1.6-1-2.9-3.3-2.9c-1.7,0-3.2,0.9-4.2,1.6l-1.3-3.3
		c1.5-1.1,3.8-2,6.5-2c4.5,0,6.9,2.6,6.9,6.2c0,3.3-2.4,6-5.3,8.5l-1.8,1.5v0.1h7.5v3.8H212.6z"/>
	<path class="st1" d="M230.3,169.8c0.8,0.4,2.7,1.2,4.6,1.2c2.4,0,3.6-1.2,3.6-2.6c0-1.9-1.9-2.8-4-2.8h-1.9v-3.3h1.8
		c1.6,0,3.5-0.6,3.5-2.3c0-1.2-1-2.1-2.9-2.1c-1.6,0-3.3,0.7-4.1,1.2l-0.9-3.3c1.2-0.8,3.6-1.5,6.1-1.5c4.2,0,6.6,2.2,6.6,4.9
		c0,2.1-1.2,3.7-3.6,4.6v0.1c2.4,0.4,4.3,2.2,4.3,4.8c0,3.5-3.1,6.1-8.1,6.1c-2.6,0-4.7-0.7-5.9-1.4L230.3,169.8z"/>
	<path class="st1" d="M261,164.4c0,6.1-2.5,10.3-7.5,10.3c-5.1,0-7.4-4.6-7.4-10.2c0-5.7,2.4-10.3,7.5-10.3
		C258.9,154.2,261,159,261,164.4z M250.7,164.5c0,4.5,1.1,6.7,2.9,6.7c1.8,0,2.8-2.3,2.8-6.8c0-4.4-0.9-6.7-2.8-6.7
		C251.8,157.7,250.7,159.9,250.7,164.5z"/>
</g>
</svg>
