<svg xmlns="http://www.w3.org/2000/svg" width="11" height="6" viewBox="0 0 11 6">
<path d="M5.54578 5.99801C5.65869 5.98702 5.76564 5.93629 5.85108 5.85308L10.8023 1.06347C10.9149 0.96113 10.9855 0.811999 10.998 0.650281C11.0105 0.488556 10.9638 0.328077 10.8685 0.205738C10.7732 0.083272 10.6375 0.00932452 10.4926 0.000803903C10.3477 -0.00759083 10.206 0.0500621 10.0998 0.1608L5.50006 4.60876L0.900316 0.160799C0.794137 0.0500613 0.652307 -0.0075912 0.507392 0.00080303C0.362471 0.00932124 0.226822 0.083271 0.131565 0.205737C0.036201 0.32808 -0.0104861 0.488568 0.00198602 0.65028C0.0144582 0.812005 0.0850968 0.961135 0.197789 1.06347L5.14875 5.85276C5.25813 5.9593 5.4015 6.01165 5.54599 5.99782L5.54578 5.99801Z" fill="currentcolor"/>
</svg>