<svg xmlns="http://www.w3.org/2000/svg" viewBox="0 0 51.28 46.48"><defs><style>.cls-1{fill:#efe4d0;}.cls-2{fill:#b39964;}.cls-3{fill:#fbfaf7;}</style></defs><g id="Layer_2" data-name="Layer 2"><g id="Layer_1-2" data-name="Layer 1"><rect class="cls-1" x="12.13" width="1.34" height="6.11"/><rect class="cls-1" x="12.13" width="1.34" height="6.11" transform="translate(9.74 15.86) rotate(-90)"/><rect class="cls-1" x="6.92" y="25.35" width="1.34" height="6.11"/><rect class="cls-1" x="6.92" y="25.35" width="1.34" height="6.11" transform="translate(-20.82 36) rotate(-90)"/><rect class="cls-1" x="45.7" y="15.51" width="1.34" height="6.11"/><rect class="cls-1" x="45.7" y="15.51" width="1.34" height="6.11" transform="translate(27.8 64.93) rotate(-90)"/><circle class="cls-1" cx="39.15" cy="2.39" r="1.34"/><circle class="cls-1" cx="3.2" cy="12.69" r="1.34"/><path class="cls-2" d="M30,16.4l-.62-.62-1,1a.21.21,0,0,1-.28,0l-1-1-.61.62,1,1a.19.19,0,0,1,0,.28l-1,1,.61.61,1-1a.19.19,0,0,1,.28,0l1,1,.62-.61-1-1a.21.21,0,0,1,0-.28Z"/><path class="cls-2" d="M23.68,16.4l-.62-.62-1,1a.21.21,0,0,1-.28,0l-1-1-.62.62,1,1a.19.19,0,0,1,0,.28l-1,1,.62.61,1-1a.19.19,0,0,1,.28,0l1,1,.62-.61-1-1a.19.19,0,0,1,0-.28Z"/><path class="cls-2" d="M28.26,24.2c-1-1.72-2.05-2.6-3.24-2.61h0c-2,0-3.3,2.51-3.35,2.62l-.06.11.85.44.06-.11s1.13-2.1,2.53-2.11c.8,0,1.6.71,2.37,2.11l.06.11.85-.45Z"/><path class="cls-2" d="M16.09,27a11.43,11.43,0,0,0,15.74,1.61l.17-.14,7.83,7.78a1.13,1.13,0,0,0,1.45-.12,1.14,1.14,0,0,0,.1-1.48l-7.76-7.8.14-.18a11.36,11.36,0,0,0-.9-15.15h0A11.42,11.42,0,0,0,16.09,27Zm4.07-15.36a9.22,9.22,0,0,1,13.82,8,9.07,9.07,0,0,1-2.74,6.47,9.16,9.16,0,0,1-13,0,9,9,0,0,1-2.69-6.48A9.22,9.22,0,0,1,20.16,11.61Z"/><ellipse class="cls-3" cx="25.64" cy="43.48" rx="25.64" ry="3"/></g></g></svg>