<svg version="1.1" id="Layer_1" xmlns="http://www.w3.org/2000/svg" xmlns:xlink="http://www.w3.org/1999/xlink" x="0px" y="0px"
	 viewBox="0 0 787 720" style="enable-background:new 0 0 787 720;" xml:space="preserve">
<style type="text/css">
	.st0{fill:#F9F5EF;}
	.st1{fill:#CFB39D;}
</style>
<rect x="1.1" class="st0" width="785.9" height="720"/>
<g>
	<g>
		<path class="st1" d="M520.8,275.7H265c-3.4,0-5.9,2.7-5.9,5.9v194.7c0,3.4,2.7,5.9,5.9,5.9h256c3.4,0,5.9-2.7,5.9-5.9V281.6
			C526.9,278.2,524.2,275.7,520.8,275.7z M523.1,476.3c0,1.3-1.1,2.3-2.3,2.3H265c-1.3,0-2.3-1.1-2.3-2.3V281.6
			c0-1.3,1.1-2.3,2.3-2.3h256c1.3,0,2.3,1.1,2.3,2.3v194.7H523.1z"/>
	</g>
	<g>
		<path class="st1" d="M280.6,458.4h62.3v0.2c0,0,0.2,0,0.4-0.2h158.3V298h-221L280.6,458.4L280.6,458.4z M284.4,443.3l42.1-42.1
			c3.4-3.4,8-5.3,12.8-5.3s9.5,1.9,12.8,5.3l3.2,3.2l35.4,35.4c-27.2,6.9-43.6,13.3-48,15.2h-58.3V443.3L284.4,443.3z M498.1,422
			c-42.3,3.6-77.3,10.1-103.4,16.6L359.1,403l55.4-55.4c3.4-3.4,8-5.3,12.8-5.3s9.5,1.9,12.8,5.3l57.9,57.9V422H498.1z M353,454.6
			c20.4-7.4,71.4-22.9,145.1-29.1v29.1H353z M498.1,301.6v98.5l-55.2-55.2c-4-4-9.5-6.3-15.4-6.3s-11.4,2.3-15.4,6.3l-55.4,55.4
			l-1.9-1.9c-4-4-9.5-6.3-15.4-6.3s-11.4,2.3-15.4,6.3L284.6,438V301.6H498.1L498.1,301.6z"/>
	</g>
	<g>
		<path class="st1" d="M327.8,362.6c9.7,0,17.5-7.8,17.5-17.5s-7.8-17.5-17.5-17.5s-17.5,7.8-17.5,17.5S318.1,362.6,327.8,362.6z
			 M327.8,331.2c7.6,0,13.9,6.1,13.9,13.9s-6.1,13.9-13.9,13.9s-13.9-6.1-13.9-13.9C313.9,337.4,320.2,331.2,327.8,331.2z"/>
	</g>
</g>
</svg>
