<svg xmlns="http://www.w3.org/2000/svg" width="38.656" height="34.44" viewBox="0 0 38.656 34.44">
  <defs>
    <style>
      .cls-1 {
        fill-rule: evenodd;
        opacity: 0.1;
      }
    </style>
  </defs>
  <path id="_" data-name="“" class="cls-1" d="M746.227,4924.03v-5.76q-15.6,8.4-15.6,24.84a10.8,10.8,0,0,0,2.1,7.02,7.221,7.221,0,0,0,5.94,2.58,7.753,7.753,0,0,0,5.94-2.52,8.668,8.668,0,0,0,2.34-6.12,7.957,7.957,0,0,0-2.34-5.76,8.682,8.682,0,0,0-5.82-2.64,17.714,17.714,0,0,1,7.44-11.64h0Zm22.32,0v-5.76q-15.6,8.4-15.6,24.84a10.8,10.8,0,0,0,2.1,7.02,7.221,7.221,0,0,0,5.94,2.58,7.753,7.753,0,0,0,5.94-2.52,8.668,8.668,0,0,0,2.34-6.12,7.957,7.957,0,0,0-2.34-5.76,8.682,8.682,0,0,0-5.82-2.64,17.714,17.714,0,0,1,7.44-11.64h0Z" transform="translate(-730.625 -4918.28)"/>
</svg>
