<?xml encoding="utf-8"?>
<!-- Generator: Adobe Illustrator 26.0.2, SVG Export Plug-In . SVG Version: 6.00 Build 0)  -->
<svg id="Layer_1" xmlns="http://www.w3.org/2000/svg" xmlns:xlink="http://www.w3.org/1999/xlink" x="0px" y="0px"
	 viewBox="0 0 100 100" style="enable-background:new 0 0 100 100;" xml:space="preserve">
<style type="text/css">
	.st0{fill:#F2ECE3;}
	.st1{fill:#D1BC99;}
</style>
<circle class="st0" cx="50" cy="50" r="50"/>
<g>
	<path class="st1" d="M50,49.5h0.6c5.5,0,10.8,2.2,14.7,6.1s6.1,9.2,6.1,14.7V72c0,1.2-0.5,2.4-1.4,3.3s-2.1,1.4-3.3,1.4H33.8
		c-1.2,0-2.4-0.5-3.3-1.4s-1.4-2.1-1.4-3.3v-1.7c0-5.5,2.2-10.8,6.1-14.7S44.4,49.5,50,49.5L50,49.5z"/>
	<path class="st1" d="M60.8,34c0,5.8-4.7,10.5-10.5,10.5S39.7,39.8,39.7,34s4.7-10.5,10.5-10.5S60.8,28.2,60.8,34"/>
</g>
</svg>
