<?xml encoding="utf-8"?>
<!-- Generator: Adobe Illustrator 26.2.1, SVG Export Plug-In . SVG Version: 6.00 Build 0)  -->
<svg xmlns="http://www.w3.org/2000/svg" xmlns:xlink="http://www.w3.org/1999/xlink" x="0px" y="0px"
	 viewBox="0 0 34 34" style="enable-background:new 0 0 34 34;" xml:space="preserve">
<g>
	<g>
		<g>
			<path d="M16.9,16.8h0.2c2.3,0,4.4,0.9,6,2.5c1.6,1.6,2.5,3.8,2.5,6V26c0,0.5-0.2,1-0.6,1.4c-0.4,0.4-0.9,0.6-1.4,0.6H10.3
				c-0.5,0-1-0.2-1.4-0.6S8.3,26.5,8.3,26v-0.7c0-2.3,0.9-4.4,2.5-6C12.4,17.7,14.6,16.8,16.9,16.8C16.9,16.8,16.9,16.8,16.9,16.8z"
				/>
			<path d="M21.3,10.4c0,2.4-1.9,4.3-4.3,4.3s-4.3-1.9-4.3-4.3s1.9-4.3,4.3-4.3S21.3,8,21.3,10.4"/>
		</g>
	</g>
</g>
</svg>
